<svg id="Layer_1" data-name="Layer 1" xmlns="http://www.w3.org/2000/svg" viewBox="0 0 120 81"><defs><style>.cls-1{fill:#66625e}.cls-2{fill:#1877bc}.cls-3{fill:#02a8c9}.cls-4{fill:#9bbe1e}</style></defs><title>has-logo</title><path class="cls-1" d="M9.6 75.25H7.71v-7c0-1.79-.94-3.06-2.81-3.06a3 3 0 0 0-3 3v7H0V58.66h1.89v6.27a4.32 4.32 0 0 1 3.28-1.45c2.83 0 4.44 2 4.44 4.86zm11.98-5.71a4.09 4.09 0 0 0-3.88-4.26 4.09 4.09 0 0 0-3.86 4.26 4 4 0 0 0 3.86 4.17 4 4 0 0 0 3.88-4.17m1.89 0a5.78 5.78 0 1 1-5.77-6.07 5.84 5.84 0 0 1 5.77 6.07m7.41-4.32a4.3 4.3 0 0 0 0 8.56 4.09 4.09 0 0 0 3.88-4.26 4.13 4.13 0 0 0-3.88-4.3m5.75 9.5c0 3.68-2.36 6.18-5.91 6.18a5.25 5.25 0 0 1-5.42-3.8h2a3.61 3.61 0 0 0 3.41 2c3 0 4-2.27 4-4.35v-1.13a4.82 4.82 0 0 1-3.93 1.92 6 6 0 1 1 5.8-6zm11.6-6.4a4 4 0 0 0-3.7-3.12 4 4 0 0 0-3.75 3.12zm1.83 3.37a5.36 5.36 0 0 1-5.42 3.83 6 6 0 0 1-.11-12c3 0 5.82 2.46 5.8 6.54h-9.66a4 4 0 0 0 4 3.79A3.54 3.54 0 0 0 48 71.68zm6.82 3.85c-2.79 0-4.82-1.49-5.13-3.93h1.92c.24 1.34 1.56 2.16 3.21 2.16s2.88-.87 2.88-1.87c0-.8-.31-1.41-3.12-1.78s-4.48-1.07-4.48-3.23c0-1.65 1.43-3.41 4.5-3.41 2.65 0 4.44 1.34 4.68 3.59h-1.92a2.54 2.54 0 0 0-2.77-1.85c-1.52 0-2.61.71-2.61 1.6s.65 1.11 2.9 1.47c2.54.4 4.64.89 4.64 3.5 0 2.3-2 3.75-4.71 3.75m11.99-.02a6 6 0 0 1 0-12 5.49 5.49 0 0 1 5.35 3.84h-2a3.63 3.63 0 0 0-3.32-2 4.23 4.23 0 0 0 0 8.43 3.59 3.59 0 0 0 3.32-2h2a5.47 5.47 0 0 1-5.35 3.84m17.23-.38H84.2v-7c0-1.79-.94-3.06-2.81-3.06a3 3 0 0 0-3 3v7H76.5V58.66h1.87v6.27a4.32 4.32 0 0 1 3.28-1.45c2.83 0 4.44 2 4.44 4.86zm11.98-5.71a3.89 3.89 0 1 0-7.74 0 3.88 3.88 0 1 0 7.74 0m1.89 0a5.78 5.78 0 1 1-5.77-6.07 5.84 5.84 0 0 1 5.81 6.07m11.25 0a3.89 3.89 0 1 0-7.74 0 3.88 3.88 0 1 0 7.74 0m1.89 0a5.78 5.78 0 1 1-5.77-6.07 5.84 5.84 0 0 1 5.77 6.07m2.21-10.88h1.87V71c0 2 1.25 2.54 2.68 2.48v1.78c-2.7.31-4.55-1.27-4.55-4.19z"/><path class="cls-2" d="M34 54.87h-9.73v-22.2c0-2.21-.74-7.23-7.08-7.23a7 7 0 0 0-7.38 7.23v22.2H0V0h9.81v18.88a14.24 14.24 0 0 1 8.7-2.95c9.3 0 15.49 6.71 15.49 16.74z"/><path class="cls-3" d="M58.93 54.87c-10.62 0-18.59-8.56-18.59-19.18s8-19.77 19.54-19.77 19.47 9 19.47 20.06v18.89h-9.73V36c0-5.83-4.35-10.62-9.74-10.62S50.15 30 50.15 35.7a9.64 9.64 0 0 0 10 9.74h5.61v9.44z"/><path class="cls-4" d="M103.33 55.76c-9.66 0-16.82-5.09-18-13.28h9.88c1.33 3.24 5.24 4.43 8.11 4.43 3.91 0 6.86-1.18 6.86-3.39s-1.33-3-8-4.06-15.81-2.88-15.81-11.36c0-6 5.24-12.17 16.23-12.17 8.7 0 15.19 4.72 16.45 11.87h-10.1c-.59-1.77-2.73-3.17-6.34-3.17-4.5 0-6.34 1.62-6.34 3 0 2 2.8 2.66 7.52 3.39C113.21 32.6 120 34.67 120 42.93c0 7.52-6.93 12.83-16.67 12.83"/></svg>